<?xml version="1.0" encoding="UTF-8"?>
<svg id="Layer_2" data-name="Layer 2" xmlns="http://www.w3.org/2000/svg" viewBox="0 0 319.3901 527.4183">
<style>.cls-1,.cls-3{opacity:0.1;}.cls-2,.cls-3{fill:#534741;}.cls-4{fill:#f7ea8d;}</style>
  <g id="katman_1" data-name="katman 1">
    <g id="VcsZJN">
      <g>
        <path d="m177.1033,385.3758c-.108,6.0767-.8932,15.0289-.0791,23.9759.5166,5.6781,1.3389,11.3281,2.0063,16.9928.5774,4.9006-.3829,9.581-2.1002,14.1428-.1645.4371-.3696.8813-.6523,1.2478-2.1864,2.8346-4.7321,3.7099-6.6767-.2599-2.9822-6.0879-3.2395-12.406-1.9347-18.9833,1.7295-8.7184,3.4978-17.4368,4.7289-26.2453.5451-3.9002.2316-7.8466.3047-11.7713.1913-10.269.1162-20.5309-1.3554-30.7276-.2315-1.6039-.5391-3.1969-1.1796-4.7018-.9943-2.3362-2.8793-3.242-5.3332-2.5647-10.0985,2.7875-16.7001,11.0877-16.9857,21.6044-.3071,11.3099-.3354,22.6286-.7361,33.9345-.393,11.0889-.9976,22.1665-3.0107,33.1279-1.3827,7.5288-.3044,14.8839,2.2806,22.0696.9858,2.7405,1.9165,5.5422,1.4457,8.5742-.3929,2.5305-1.8009,4.3218-3.9172,5.5809-1.7715,1.0539-4.075.5929-5.5598-1.036-3.2034-3.5142-3.866-7.5781-2.3116-11.977,1.5882-4.4945,2.9918-9.0296,3.9069-13.7127,1.3485-6.9008,1.9827-13.8885,2.4097-20.8887.6283-10.3003.9778-20.6106.7233-30.9372-.2459-9.9783-1.2257-19.8336-4.0638-29.4569-2.0974-7.1117-7.7221-11.9905-15.0851-12.8023-2.2289-.2458-4.4083.1765-6.4633.9887-14.4026,5.6926-25.9339,14.7728-33.3737,28.5889-3.634,6.7487-5.628,14.0423-6.9945,21.543-2.5994,14.2687-2.9717,28.6127-1.5847,43.0244.7173,7.453,1.8939,14.8378,3.247,22.1991.9844,5.3556.5925,10.6329-1.157,15.8012-.5828,1.7217-1.4366,3.2416-2.9555,4.3312-.87.6241-1.7046.654-2.6292.1283-1.3873-.7888-2.243-1.9786-2.8703-3.4151-2.3215-5.3168-2.6555-10.8481-1.674-16.4724,1.52-8.7099,3.2126-17.4007,3.7881-26.2349.6468-9.9281,1.538-19.8348,2.3485-29.7481.6285-7.6866.8479-15.3789.5882-23.0746-.2706-8.0166-1.0036-15.9794-4.0298-23.5484-3.7354-9.3427-10.1944-16.0731-19.2667-20.3449-1.1882-.5595-2.4359-.9316-3.7126-1.2352-3.2264-.7672-5.5847.5334-6.5461,3.7121-1.1789,3.8977-1.6185,7.9049-1.3533,11.9531.3627,5.536.8966,11.0605,1.32,16.5928.5439,7.1071.4903,14.2345.7074,21.353.4264,13.9845-.0099,27.9713.275,41.9534.239,11.7304.5185,23.4612.9397,35.1861.3855,10.7301,1.3622,21.4113,3.2288,32.0017,1.0066,5.7112.6882,11.3682-1.1454,16.9026-.3125.9431-.6561,1.8767-1.2454,2.6971-1.898,2.6425-4.3055,2.5769-5.9751-.2181-1.3794-2.3091-2.1879-4.8362-2.7854-7.4575-1.0454-4.5862-.3001-9.0482.7201-13.5114,1.8613-8.1433,2.6138-16.4295,3.0583-24.7441,1.2516-23.4124.2045-46.8198-.3888-70.2206-.4698-18.5299-1.3391-37.0509-2.1714-55.5695-.1707-3.7975-.9474-7.5695-1.49-11.3467-.0817-.5691-.0785-1.4166-.838-1.4972-.6866-.0729-1.0131.6589-1.3557,1.1741-.3466.521-.6916,1.0574-.9356,1.6303-2.6479,6.2154-5.0215,12.5385-6.2829,19.1909-1.1671,6.155-.5989,12.3032.6826,18.4005,1.1472,5.4583,1.4587,10.9937,1.4407,16.5547-.0064,1.9847-.4758,3.8268-1.7174,5.4344-1.8568,2.404-4.9353,2.631-7.1281.5222-1.5084-1.4507-2.3092-3.1474-2.2947-5.2963.0361-5.3564.8401-10.6461,1.3087-15.9627.6066-6.8824,1.4492-13.7436,1.9168-20.64.1072-1.5805-.0003-3.1523-.3084-4.6904-.9432-4.7086-4.8348-7.2252-9.7078-6.3331-2.0103.368-3.9778.9247-5.8867,1.6358-1.1633.4333-1.5501.1594-1.7348-1.0487-.4757-3.1109-.6472-6.2427-.8963-9.373-.7073-8.8906-.6509-17.7967-.5157-26.6971.1506-9.9154,3.5886-18.8096,8.9005-27.072,1.8145-2.8224,3.745-5.5554,5.8052-8.1972,2.9594-3.7948,3.9216-7.9395,2.7421-12.6799-1.0213-4.1047-1.8822-8.252-2.1388-12.5108-.2536-4.2084.687-8.0639,2.6508-11.767,5.804-10.9445,14.4427-18.8274,25.573-24.1401,6.5156-3.1099,13.1584-5.9194,19.7955-8.7466,3.1439-1.3392,4.5929-3.5506,4.5738-7.0761-.0932-17.182-.061-34.3648-.0381-51.5473.0205-15.356,2.0163-30.4529,5.6922-45.3694,3.7931-15.392,9.6757-30.0341,15.5333-44.6928,3.5314-8.8373,7.0728-17.6945,11.5114-26.112,4.7191-8.9494,10.6234-17.0842,18.9928-23.0652,4.977-3.5567,10.7632-5.2651,16.6253-6.7283,8.6351-2.1553,17.3269-4.0343,26.1977-4.873,9.1846-.8684,18.38-1.402,27.5398.3849,10.4803,2.0445,19.1851,7.2339,26.5416,14.8535,6.1717,6.3925,10.1197,14.165,13.8985,22.0749,7.5858,15.8784,13.1852,32.4107,16.912,49.6075,2.4313,11.2191,4.2009,22.5279,5.0418,33.9686.5603,7.6236.8943,15.2649,1.2555,22.9017.9575,20.2444,1.5648,40.5018,2.0697,60.7615.0864,3.4691,1.4631,5.6741,4.7687,6.8877,7.6066,2.7926,15.1434,5.7691,22.4416,9.3133,7.0034,3.4011,12.8336,8.2206,17.5459,14.4149,4.4589,5.8613,4.948,12.1963,2.0579,18.7964-2.4136,5.5117-2.2976,10.8594.3809,16.1881.8449,1.6809,1.7252,3.3488,2.683,4.9671,2.5574,4.3208,5.2315,8.5679,7.6074,13.0008,2.8807,5.3749,4.1153,11.1118,4.6023,17.13.8837,10.921,1.0511,21.8613,1.2328,32.8051.0365,2.1968.2272,4.3906.307,6.5872.0492,1.3542-.447,2.4858-1.2739,3.6005-6.9415,9.3566-11.1749,19.6346-11.0306,31.5272.1621,13.3562-.0316,26.7167.1267,40.073.2321,19.5876.5085,39.1798,1.8411,58.731.4339,6.366,1.3404,12.6997,2.0246,19.0489.8819,8.1831,1.7825,16.3623-.7821,24.4431-.4907,1.5461-1.2384,2.8592-2.455,3.9306-.8193.7215-1.6197.8222-2.5638.237-1.3416-.8316-2.2596-1.9973-2.9186-3.4034-2.6125-5.574-3.1338-11.396-1.6806-17.3173,3.0523-12.4369,4.051-25.1008,4.2349-37.8353.3284-22.735-.2965-45.4582-1.0988-68.1793-.4086-11.5699-1.2421-23.1146-1.7312-34.6783-.053-1.2539-.2052-2.5037-.3095-3.7555-.0259-.3113.003-.7081-.3752-.7731-.4126-.0709-.652.2621-.8056.6139-.4037.9241-.5386,1.9147-.6388,2.9012-.9149,9.008-1.823,18.0168-2.7146,27.0272-1.2268,12.3972-2.4423,24.7959-3.3192,37.2242-.5528,7.8345-1.076,15.6712-1.5841,23.5088-.3786,5.8401.6364,11.4552,2.7407,16.9067,1.4156,3.6673,2.8354,7.3769,2.0217,11.4289-.7089,3.5297-2.1662,6.6654-5.2415,8.8061-2.5465,1.7726-5.0326,1.6186-7.2564-.4929-3.8459-3.6517-5.3776-7.9823-3.8924-13.2314,1.437-5.0789,3.1088-10.0924,4.2218-15.2624,2.9421-13.6658,4.0295-27.461,2.3577-41.3607-1.622-13.4863-6.5109-25.7981-14.2659-36.9563-.8984-1.2927-1.9975-2.4261-3.2246-3.4222-3.1329-2.5432-6.9551-2.31-9.7194.6126-1.8538,1.96-3.1564,4.2957-4.4087,6.6558-4.8696,9.1768-7.0758,18.9667-6.6663,29.3401.1594,4.0381.9195,7.9971,1.6866,11.9557.5388,2.7799.7335,5.611.7908,8.4348.0547,2.6959-1.1659,4.7041-3.6951,5.8489-3.4778,1.5743-6.2061-.1413-6.3464-3.9539-.1413-3.842.4392-7.6292.8153-11.4268.789-7.9675,1.6719-15.9262,2.5833-23.8808.4627-4.0379-.8749-7.1901-4.2636-9.4423-1.4592-.9699-1.8164-.8496-2.2227.832-.7925,3.2796-.706,6.6532-.9722,9.988-.4868,6.0976-.3371,12.2635-1.8841,18.2464-.9177,3.5492-2.2021,6.9809-3.7194,10.3141-1.2492,2.7441-3.4703,4.5652-6.138,5.8238-2.3885,1.127-4.3101.5996-5.942-1.4966-1.1045-1.4187-1.7616-3.0799-2.4882-4.7033-.5977-1.3352-1.1624-2.6914-1.8587-3.9749-1.7022-3.1378-3.4954-4.1611-6.3676-3.758-3.8044.534-6.0716,2.417-6.8051,5.7405-.6787,3.0753-.9573,6.2156-1.1346,9.3449-.5197,9.1723-.1926,18.3303,1.0948,27.4272.9121,6.4458,2.6018,12.632,5.824,18.4275,2.7439,4.9352,3.5637,10.4181,2.0598,15.9744-1.4593,5.3917-5.0738,8.8214-10.4831,10.1987-2.477.6306-4.6437-.3818-6.5036-1.9822-5.0236-4.3229-6.6401-10.1877-4.4672-16.4526.9754-2.8122,2.1126-5.571,3.2488-8.3243,2.6518-6.4262,3.8164-13.1297,3.8832-20.0536.2667-27.6537.3916-55.3082.5566-82.9624.0568-9.5233.6935-19.0454.6604-28.5807-.0226-6.5247-.7504-12.9468-2.2542-19.2932-.6204-2.6182-2.2669-4.4668-4.3718-5.9141-1.4883-1.0234-3.1833-1.061-4.7269-.0104-3.2789,2.2316-5.4996,4.9268-5.7954,9.2722-1.0317,15.1539-1.8749,30.3152-2.6593,48.3609Zm-9.6313-364.3923c-5.8611.2115-11.7222.4203-17.5832.6351-7.9448.2912-14.7384,3.1576-20.2739,8.9475-3.1562,3.3012-5.5454,7.0714-7.2595,11.2807-3.6213,8.8927-5.8118,18.2152-8.2084,27.4751-3.7059,14.3191-7.0571,28.729-11.268,42.9187-2.5698,8.6596-2.5116,17.3801.5689,25.9263,2.3486,6.5158,6.5046,11.3697,13.6048,12.8559,3.1083.6507,6.3456.5972,9.458,1.364.8297.2044,2.3295.0229,2.2872.7749-.0598,1.0621-1.532.9833-2.472,1.1419-2.163.3648-4.3541.571-6.5084.9767-2.1195.3991-2.5997,1.0901-2.559,3.2426.0329,1.7365.2766,3.4558.8261,5.0969,2.5876,7.7284,5.2413,15.4346,7.8287,23.163,4.298,12.838,10.1531,25.0862,14.2048,38.0272,3.6244,11.5761,6.2117,23.3335,7.4066,35.3947.6554,6.6149.6889,13.2816,1.5281,19.8819.9309,7.3215,3.3619,14.1068,7.4298,20.2916.9881,1.5023,2.3511,2.4494,4.0984,2.5899,5.6249.4524,12.486-1.8782,15.5053-8.659,5.0989-11.4512,9.1922-23.2052,11.9691-35.4407,1.7811-7.8477,3.7146-15.6782,7.552-22.8658,7.0228-13.1538,12.1647-27.062,16.4581-41.3018,2.9131-9.6619,5.4278-19.4307,7.5104-29.3061.6412-3.0407-.2196-4.6991-3.0027-6.139-3.0179-1.5614-6.0598-3.0764-9.0756-4.6415-.6244-.3241-1.6341-.6565-1.3989-1.4518.2579-.872,1.3004-.4724,1.9545-.3591,2.9866.5174,5.9512,1.1607,8.9343,1.7001,7.1782,1.298,12.2898-.5448,15.4146-8.1532,3.9225-9.5505,4.0035-19.1123.38-28.7536-1.552-4.1296-3.9191-7.8564-5.7364-11.8538-2.7731-6.0997-4.1156-12.5995-5.396-19.1167-2.6622-13.5505-4.5742-27.2286-6.8863-40.8388-1.0231-6.0226-2.963-11.5312-7.2074-16.0522-5.0716-5.402-11.6381-7.4103-18.7336-8.0559-7.0984-.6459-14.223-.7218-21.3505-.6956Z"/>
        <path d="m145.8805,203.4522c.0203-9.4399.8601-16.3256,2.8398-23.0492,1.9326-6.5636,6.6158-10.2108,13.0547-11.508,6.7944-1.3689,13.1185.183,18.6954,4.3426,4.4516,3.3203,6.8175,7.89,7.2283,13.3797.351,4.6904,1.406,9.3503.9224,14.0813-.9841,9.6291-1.6636,19.2852-2.917,28.8919-1.8559,14.2234-4.1859,28.3451-7.7902,42.2419-1.6069,6.1955-3.4892,12.2486-7.0817,17.6616-1.981,2.9849-4.1965,4.0908-7.8458,3.4186-3.4854-.642-5.6809-2.6287-6.1745-6.0006-.9773-6.6757-1.8052-13.3733-2.6935-20.062-.8193-6.1694-1.6228-12.3409-2.4586-18.508-1.391-10.2637-2.7708-20.5291-4.218-30.785-.7753-5.4946-1.5238-10.9856-1.5611-14.1048Z"/>
        <path d="m162.0779,87.5251c-.1197,7.3268-2.671,13.9229-6.3582,20.095-4.2326,7.085-9.723,13.0666-16.4202,17.9443-3.3314,2.4263-7.2027,3.5191-10.9893,4.8516-.5624.1979-1.1306.0073-1.6845-.1855-3.8481-1.3387-7.701-2.6638-11.5497-4.0008-.4435-.1541-.8796-.3362-1.3045-.5362-2.7228-1.2819-3.4065-3.3877-1.7248-5.858,3.135-4.6051,6.6561-8.8595,11.3049-12.0743,4.64-3.2087,8.6185-7.1156,12.0417-11.6107,2.1704-2.85,3.9124-5.935,5.3895-9.1743,2.0665-4.532,4.9979-8.4489,8.3863-12.0495.9339-.9924,1.9855-1.8569,3.2318-2.4564,2.2751-1.0945,3.9124-.7686,5.5873,1.1448.8718.9959,1.4756,2.1636,1.9722,3.3717,1.3852,3.37,2.1921,6.8661,2.1176,10.5384Z"/>
        <path d="m178.5652,88.6924c.0298-4.2155.874-8.3126,1.9007-12.3699.5808-2.2951,2.6189-3.2705,4.7443-2.2572,5.1715,2.4657,9.2922,6.0134,11.3147,11.5725,1.6843,4.6296,3.5758,9.1542,6.4809,13.1809,3.1796,4.4073,6.9098,8.2772,11.3942,11.3638,4.4639,3.0725,7.3044,7.4215,9.7098,12.1146.7904,1.542-.1867,3.6392-2.1091,4.6822-3.0383,1.6486-6.3916,2.6027-9.4714,4.1355-2.6614,1.3245-4.9447,1.093-7.6711-.062-4.9513-2.0976-8.6429-5.6265-12.2088-9.396-8.1031-8.5657-12.9423-18.6517-14.0411-30.454-.0291-.3123-.0373-.6272-.0412-.9411-.0066-.5231-.0018-1.0464-.0018-1.5696Z"/>
        <path d="m168.9154,145.5249c-3.9274,0-7.855-.0163-11.7822.0135-.8032.0061-1.2906-.0953-1.1892-1.0781.6968-6.7554,7.175-14.8458,12.5133-15.7524,2.3834-.4048,4.3439.0108,6.0041,2.0311,3.1638,3.8501,5.6819,8.0124,7.0658,12.8171.5755,1.9981.5457,1.9876-1.4578,1.9798-3.7179-.0144-7.4359-.0041-11.1539-.0041v-.0069Z"/>
      </g>
    </g>
  </g>
</svg>